<?xml version="1.0" encoding="UTF-8" standalone="no"?>
<!DOCTYPE svg PUBLIC "-//W3C//DTD SVG 1.1//EN"
 "http://www.w3.org/Graphics/SVG/1.1/DTD/svg11.dtd">
<!-- Generated by graphviz version 2.43.0 (0)
 -->
<!-- Title: scsi_with_arbitration Pages: 1 -->
<svg width="1120pt" height="460pt"
 viewBox="0.00 0.00 1120.33 459.80" xmlns="http://www.w3.org/2000/svg" xmlns:xlink="http://www.w3.org/1999/xlink">
<g id="graph0" class="graph" transform="scale(1 1) rotate(0) translate(4 455.8)">
<title>scsi_with_arbitration</title>
<polygon fill="transparent" stroke="transparent" points="-4,4 -4,-455.8 1116.33,-455.8 1116.33,4 -4,4"/>
<!-- _ -->
<g id="node1" class="node">
<title>_</title>
<text text-anchor="middle" x="31" y="-182.1" font-family="Fira Code" font-size="14.00">RESET</text>
</g>
<!-- BF -->
<g id="node2" class="node">
<title>BF</title>
<ellipse fill="none" stroke="black" cx="157.9" cy="-185.8" rx="55.8" ry="55.8"/>
<ellipse fill="none" stroke="black" cx="157.9" cy="-185.8" rx="59.79" ry="59.79"/>
<text text-anchor="middle" x="157.9" y="-182.1" font-family="Fira Code" font-size="14.00">BUS FREE</text>
</g>
<!-- _&#45;&gt;BF -->
<g id="edge25" class="edge">
<title>_&#45;&gt;BF</title>
<path fill="none" stroke="black" d="M62.23,-185.8C70,-185.8 78.67,-185.8 87.54,-185.8"/>
<polygon fill="black" stroke="black" points="87.59,-189.3 97.59,-185.8 87.59,-182.3 87.59,-189.3"/>
</g>
<!-- A -->
<g id="node3" class="node">
<title>A</title>
<ellipse fill="none" stroke="black" cx="325.28" cy="-235.8" rx="71.49" ry="71.49"/>
<text text-anchor="middle" x="325.28" y="-232.1" font-family="Fira Code" font-size="14.00">ARBITRATION</text>
</g>
<!-- BF&#45;&gt;A -->
<g id="edge26" class="edge">
<title>BF&#45;&gt;A</title>
<path fill="none" stroke="black" d="M217.2,-196.95C227.46,-199.82 238.26,-203 248.9,-206.28"/>
<polygon fill="black" stroke="black" points="248.02,-209.68 258.61,-209.32 250.11,-203 248.02,-209.68"/>
</g>
<!-- A&#45;&gt;BF -->
<g id="edge29" class="edge">
<title>A&#45;&gt;BF</title>
<path fill="none" stroke="black" d="M254.98,-221.52C244.49,-218.47 233.7,-215.19 223.32,-211.88"/>
<polygon fill="black" stroke="black" points="224.1,-208.45 213.51,-208.7 221.94,-215.11 224.1,-208.45"/>
</g>
<!-- S -->
<g id="node4" class="node">
<title>S</title>
<ellipse fill="none" stroke="black" cx="506.87" cy="-344.8" rx="61.99" ry="61.99"/>
<text text-anchor="middle" x="506.87" y="-341.1" font-family="Fira Code" font-size="14.00">SELECTION</text>
</g>
<!-- A&#45;&gt;S -->
<g id="edge27" class="edge">
<title>A&#45;&gt;S</title>
<path fill="none" stroke="black" d="M387.08,-272.7C405.71,-284.01 426.19,-296.44 444.83,-307.75"/>
<polygon fill="black" stroke="black" points="443.17,-310.84 453.53,-313.04 446.8,-304.86 443.17,-310.84"/>
</g>
<!-- R -->
<g id="node5" class="node">
<title>R</title>
<ellipse fill="none" stroke="black" cx="506.87" cy="-190.8" rx="74.19" ry="74.19"/>
<text text-anchor="middle" x="506.87" y="-187.1" font-family="Fira Code" font-size="14.00">RESELECTION</text>
</g>
<!-- A&#45;&gt;R -->
<g id="edge28" class="edge">
<title>A&#45;&gt;R</title>
<path fill="none" stroke="black" d="M394.95,-218.6C404.75,-216.14 414.91,-213.59 424.92,-211.09"/>
<polygon fill="black" stroke="black" points="426.01,-214.42 434.86,-208.59 424.31,-207.63 426.01,-214.42"/>
</g>
<!-- S&#45;&gt;BF -->
<g id="edge30" class="edge">
<title>S&#45;&gt;BF</title>
<path fill="none" stroke="black" d="M445.36,-350.93C391.47,-353.49 312.32,-349.89 253.79,-315.8 226.9,-300.14 205.45,-273.5 189.79,-248.4"/>
<polygon fill="black" stroke="black" points="192.65,-246.37 184.49,-239.61 186.65,-249.98 192.65,-246.37"/>
</g>
<!-- C -->
<g id="node6" class="node">
<title>C</title>
<ellipse fill="none" stroke="black" cx="1052.54" cy="-196.8" rx="59.59" ry="59.59"/>
<text text-anchor="middle" x="1052.54" y="-193.1" font-family="Fira Code" font-size="14.00">COMMAND</text>
</g>
<!-- S&#45;&gt;C -->
<g id="edge17" class="edge">
<title>S&#45;&gt;C</title>
<path fill="none" stroke="black" d="M566.43,-361.83C656.55,-384.51 831.9,-414.34 956.74,-345.8 989.4,-327.87 1012.41,-293.4 1027.57,-262.12"/>
<polygon fill="black" stroke="black" points="1030.79,-263.51 1031.84,-252.97 1024.44,-260.56 1030.79,-263.51"/>
</g>
<!-- D -->
<g id="node7" class="node">
<title>D</title>
<ellipse fill="none" stroke="black" cx="922.29" cy="-267.8" rx="34.39" ry="34.39"/>
<text text-anchor="middle" x="922.29" y="-264.1" font-family="Fira Code" font-size="14.00">DATA</text>
</g>
<!-- S&#45;&gt;D -->
<g id="edge18" class="edge">
<title>S&#45;&gt;D</title>
<path fill="none" stroke="black" d="M568.8,-348.17C639.07,-350.06 757.08,-347.05 851.85,-313.8 864.12,-309.49 876.34,-302.53 887.04,-295.32"/>
<polygon fill="black" stroke="black" points="889.1,-298.15 895.26,-289.52 885.07,-292.42 889.1,-298.15"/>
</g>
<!-- ST -->
<g id="node8" class="node">
<title>ST</title>
<ellipse fill="none" stroke="black" cx="807" cy="-96.8" rx="44.69" ry="44.69"/>
<text text-anchor="middle" x="807" y="-93.1" font-family="Fira Code" font-size="14.00">STATUS</text>
</g>
<!-- S&#45;&gt;ST -->
<g id="edge19" class="edge">
<title>S&#45;&gt;ST</title>
<path fill="none" stroke="black" d="M555.44,-306.1C565.02,-296.4 574.21,-285.42 580.96,-273.8 613.04,-218.63 570.61,-178.67 616.96,-134.8 636.09,-116.7 703.09,-106.5 751.91,-101.32"/>
<polygon fill="black" stroke="black" points="752.43,-104.78 762.02,-100.29 751.72,-97.82 752.43,-104.78"/>
</g>
<!-- M -->
<g id="node9" class="node">
<title>M</title>
<ellipse fill="none" stroke="black" cx="671.56" cy="-198.8" rx="54.69" ry="54.69"/>
<text text-anchor="middle" x="671.56" y="-195.1" font-family="Fira Code" font-size="14.00">MESSAGE</text>
</g>
<!-- S&#45;&gt;M -->
<g id="edge20" class="edge">
<title>S&#45;&gt;M</title>
<path fill="none" stroke="black" d="M553.62,-303.74C575.23,-284.35 601.01,-261.22 622.86,-241.61"/>
<polygon fill="black" stroke="black" points="625.3,-244.12 630.41,-234.83 620.63,-238.91 625.3,-244.12"/>
</g>
<!-- R&#45;&gt;BF -->
<g id="edge31" class="edge">
<title>R&#45;&gt;BF</title>
<path fill="none" stroke="black" d="M437.11,-165.19C423.9,-161.29 410.04,-157.88 396.78,-155.8 333.99,-145.98 316.6,-146.11 253.79,-155.8 243.99,-157.31 233.82,-159.65 223.93,-162.38"/>
<polygon fill="black" stroke="black" points="222.79,-159.06 214.17,-165.21 224.74,-165.79 222.79,-159.06"/>
</g>
<!-- R&#45;&gt;C -->
<g id="edge21" class="edge">
<title>R&#45;&gt;C</title>
<path fill="none" stroke="black" d="M555.65,-246.7C577.8,-271.13 602.4,-295.82 616.96,-302.8 726.02,-355.09 767.04,-323.02 887.85,-328.8 918.43,-330.27 929.5,-342.78 956.74,-328.8 985.27,-314.16 1007.15,-286.51 1022.67,-260.28"/>
<polygon fill="black" stroke="black" points="1025.78,-261.88 1027.68,-251.45 1019.7,-258.42 1025.78,-261.88"/>
</g>
<!-- R&#45;&gt;D -->
<g id="edge22" class="edge">
<title>R&#45;&gt;D</title>
<path fill="none" stroke="black" d="M558.1,-244.41C575.2,-259.09 595.47,-273.08 616.96,-280.8 705.88,-312.75 818.92,-293.77 879.1,-279.39"/>
<polygon fill="black" stroke="black" points="880.12,-282.74 889,-276.95 878.45,-275.94 880.12,-282.74"/>
</g>
<!-- R&#45;&gt;ST -->
<g id="edge23" class="edge">
<title>R&#45;&gt;ST</title>
<path fill="none" stroke="black" d="M558.87,-137.66C575.86,-123.32 595.88,-109.63 616.96,-101.8 660.48,-85.65 713.58,-85.81 752.41,-89.2"/>
<polygon fill="black" stroke="black" points="752.17,-92.69 762.46,-90.17 752.84,-85.72 752.17,-92.69"/>
</g>
<!-- R&#45;&gt;M -->
<g id="edge24" class="edge">
<title>R&#45;&gt;M</title>
<path fill="none" stroke="black" d="M581.12,-194.4C589.64,-194.82 598.27,-195.25 606.65,-195.66"/>
<polygon fill="black" stroke="black" points="606.55,-199.16 616.71,-196.15 606.89,-192.17 606.55,-199.16"/>
</g>
<!-- C&#45;&gt;BF -->
<g id="edge32" class="edge">
<title>C&#45;&gt;BF</title>
<path fill="none" stroke="black" d="M1019.63,-146.84C978.39,-89.06 900.76,-1.8 808,-1.8 505.87,-1.8 505.87,-1.8 505.87,-1.8 391.9,-1.8 349.45,13.15 253.79,-48.8 226.19,-66.68 204.39,-95.68 188.68,-122.41"/>
<polygon fill="black" stroke="black" points="185.49,-120.95 183.59,-131.37 191.58,-124.41 185.49,-120.95"/>
</g>
<!-- C&#45;&gt;C -->
<g id="edge1" class="edge">
<title>C&#45;&gt;C</title>
<path fill="none" stroke="black" d="M1028.59,-251.69C1030.46,-264.85 1038.44,-274.6 1052.54,-274.6 1062.88,-274.6 1069.94,-269.34 1073.7,-261.33"/>
<polygon fill="black" stroke="black" points="1077.07,-262.26 1076.48,-251.69 1070.34,-260.32 1077.07,-262.26"/>
</g>
<!-- C&#45;&gt;D -->
<g id="edge2" class="edge">
<title>C&#45;&gt;D</title>
<path fill="none" stroke="black" d="M1002.72,-230.4C989.98,-237.75 976.37,-245.2 964.09,-251.55"/>
<polygon fill="black" stroke="black" points="962.33,-248.52 954.99,-256.17 965.5,-254.76 962.33,-248.52"/>
</g>
<!-- C&#45;&gt;ST -->
<g id="edge3" class="edge">
<title>C&#45;&gt;ST</title>
<path fill="none" stroke="black" d="M995.13,-179.44C953.02,-163.51 896.1,-140.04 856.13,-122.07"/>
<polygon fill="black" stroke="black" points="857.41,-118.81 846.86,-117.86 854.52,-125.18 857.41,-118.81"/>
</g>
<!-- C&#45;&gt;M -->
<g id="edge4" class="edge">
<title>C&#45;&gt;M</title>
<path fill="none" stroke="black" d="M992.71,-202.16C923.18,-204.74 807.89,-205.4 736.29,-203.67"/>
<polygon fill="black" stroke="black" points="736.14,-200.16 726.05,-203.39 735.96,-207.16 736.14,-200.16"/>
</g>
<!-- D&#45;&gt;BF -->
<g id="edge33" class="edge">
<title>D&#45;&gt;BF</title>
<path fill="none" stroke="black" d="M902.06,-296.15C864.5,-347.76 775.96,-451.8 672.56,-451.8 505.87,-451.8 505.87,-451.8 505.87,-451.8 384.5,-451.8 345.32,-426.5 253.79,-346.8 224.06,-320.91 201.17,-283.33 185.33,-250.98"/>
<polygon fill="black" stroke="black" points="188.31,-249.1 180.85,-241.58 181.99,-252.11 188.31,-249.1"/>
</g>
<!-- D&#45;&gt;C -->
<g id="edge6" class="edge">
<title>D&#45;&gt;C</title>
<path fill="none" stroke="black" d="M950.18,-247.3C961.38,-240.32 974.91,-232.45 988.38,-225.02"/>
<polygon fill="black" stroke="black" points="990.1,-228.06 997.2,-220.2 986.75,-221.92 990.1,-228.06"/>
</g>
<!-- D&#45;&gt;D -->
<g id="edge5" class="edge">
<title>D&#45;&gt;D</title>
<path fill="none" stroke="black" d="M901.44,-295.32C898.87,-308.56 905.82,-320.25 922.29,-320.25 934.39,-320.25 941.36,-313.95 943.18,-305.35"/>
<polygon fill="black" stroke="black" points="946.68,-305.31 943.15,-295.32 939.68,-305.34 946.68,-305.31"/>
</g>
<!-- D&#45;&gt;ST -->
<g id="edge7" class="edge">
<title>D&#45;&gt;ST</title>
<path fill="none" stroke="black" d="M900.19,-241.35C881.95,-215.44 855.45,-175.61 835.54,-144.26"/>
<polygon fill="black" stroke="black" points="838.41,-142.25 830.11,-135.66 832.49,-145.98 838.41,-142.25"/>
</g>
<!-- D&#45;&gt;M -->
<g id="edge8" class="edge">
<title>D&#45;&gt;M</title>
<path fill="none" stroke="black" d="M888.02,-263.35C848.33,-254.53 781.2,-236.28 732.4,-221.27"/>
<polygon fill="black" stroke="black" points="733.18,-217.85 722.6,-218.22 731.1,-224.53 733.18,-217.85"/>
</g>
<!-- ST&#45;&gt;BF -->
<g id="edge34" class="edge">
<title>ST&#45;&gt;BF</title>
<path fill="none" stroke="black" d="M763.48,-84.84C667.6,-60.24 429.26,-12.46 253.79,-89.8 233.7,-98.65 215.61,-113.88 200.74,-129.63"/>
<polygon fill="black" stroke="black" points="197.84,-127.63 193.71,-137.38 203.02,-132.33 197.84,-127.63"/>
</g>
<!-- ST&#45;&gt;C -->
<g id="edge10" class="edge">
<title>ST&#45;&gt;C</title>
<path fill="none" stroke="black" d="M850.42,-108.95C888.89,-123.04 946.07,-146.29 989.64,-165.42"/>
<polygon fill="black" stroke="black" points="988.44,-168.72 999,-169.56 991.27,-162.32 988.44,-168.72"/>
</g>
<!-- ST&#45;&gt;D -->
<g id="edge11" class="edge">
<title>ST&#45;&gt;D</title>
<path fill="none" stroke="black" d="M835.14,-131.9C854.77,-160.23 880.97,-199.91 899.31,-229.15"/>
<polygon fill="black" stroke="black" points="896.47,-231.22 904.73,-237.86 902.42,-227.52 896.47,-231.22"/>
</g>
<!-- ST&#45;&gt;ST -->
<g id="edge9" class="edge">
<title>ST&#45;&gt;ST</title>
<path fill="none" stroke="black" d="M785.63,-136.39C785.74,-149.34 792.86,-159.65 807,-159.65 817.27,-159.65 823.84,-154.2 826.71,-146.26"/>
<polygon fill="black" stroke="black" points="830.16,-146.83 828.37,-136.39 823.26,-145.67 830.16,-146.83"/>
</g>
<!-- ST&#45;&gt;M -->
<g id="edge12" class="edge">
<title>ST&#45;&gt;M</title>
<path fill="none" stroke="black" d="M773.88,-127.22C759.74,-138.82 742.74,-152.08 726.74,-164.03"/>
<polygon fill="black" stroke="black" points="724.43,-161.38 718.48,-170.15 728.6,-167.01 724.43,-161.38"/>
</g>
<!-- M&#45;&gt;BF -->
<g id="edge35" class="edge">
<title>M&#45;&gt;BF</title>
<path fill="none" stroke="black" d="M639.55,-154.4C624.24,-136.34 604.07,-117.48 580.96,-107.8 459.4,-56.89 304.34,-113.56 220.1,-153.46"/>
<polygon fill="black" stroke="black" points="218.42,-150.38 210.93,-157.87 221.46,-156.69 218.42,-150.38"/>
</g>
<!-- M&#45;&gt;C -->
<g id="edge14" class="edge">
<title>M&#45;&gt;C</title>
<path fill="none" stroke="black" d="M726.05,-193.65C793.28,-190.96 908.78,-190.19 982.58,-191.82"/>
<polygon fill="black" stroke="black" points="982.63,-195.32 992.71,-192.06 982.8,-188.32 982.63,-195.32"/>
</g>
<!-- M&#45;&gt;D -->
<g id="edge15" class="edge">
<title>M&#45;&gt;D</title>
<path fill="none" stroke="black" d="M725.61,-207.87C771.98,-219.11 838.31,-237.68 880.59,-251.36"/>
<polygon fill="black" stroke="black" points="879.68,-254.74 890.27,-254.55 881.87,-248.1 879.68,-254.74"/>
</g>
<!-- M&#45;&gt;ST -->
<g id="edge16" class="edge">
<title>M&#45;&gt;ST</title>
<path fill="none" stroke="black" d="M712.23,-162.24C727.14,-150.24 744.22,-137.11 759.68,-125.74"/>
<polygon fill="black" stroke="black" points="762.06,-128.34 768.08,-119.63 757.94,-122.69 762.06,-128.34"/>
</g>
<!-- M&#45;&gt;M -->
<g id="edge13" class="edge">
<title>M&#45;&gt;M</title>
<path fill="none" stroke="black" d="M646.59,-247.66C647.79,-261.11 656.12,-271.4 671.56,-271.4 682.9,-271.4 690.4,-265.85 694.06,-257.58"/>
<polygon fill="black" stroke="black" points="697.51,-258.21 696.53,-247.66 690.72,-256.52 697.51,-258.21"/>
</g>
</g>
</svg>
